<?xml version="1.0" standalone="no"?>
<!DOCTYPE svg PUBLIC "-//W3C//DTD SVG 20010904//EN"
 "http://www.w3.org/TR/2001/REC-SVG-20010904/DTD/svg10.dtd">
<svg version="1.0" xmlns="http://www.w3.org/2000/svg"
 width="260.000000pt" height="260.000000pt" viewBox="0 0 260.000000 260.000000"
 preserveAspectRatio="xMidYMid meet">
<metadata>
Created by potrace 1.11, written by Peter Selinger 2001-2013
</metadata>
<g transform="translate(0.000000,260.000000) scale(0.100000,-0.100000)"
fill="#000000" stroke="none">
<path d="M1482 2188 c-35 -95 -62 -196 -56 -211 6 -17 49 -31 65 -21 6 3 9 21
7 39 -2 19 1 32 7 31 24 -4 35 -19 35 -50 0 -39 19 -59 52 -54 20 3 23 8 22
48 -1 25 -4 54 -8 65 -5 16 0 23 26 35 23 10 34 23 36 41 4 36 -21 55 -53 41
-14 -7 -25 -17 -25 -23 0 -8 6 -7 18 2 16 13 16 13 0 -7 -9 -11 -26 -20 -38
-21 -23 -2 -27 25 -9 76 13 36 7 46 -32 56 -25 6 -28 3 -47 -47z"/>
<path d="M1177 2198 c-23 -17 -46 -101 -40 -148 3 -20 13 -47 23 -60 16 -21
27 -25 74 -24 74 0 106 28 106 91 0 50 -19 100 -46 125 -27 24 -94 33 -117 16z
m80 -90 c17 -27 10 -54 -14 -53 -33 0 -47 18 -34 44 13 23 36 28 48 9z"/>
<path d="M872 2100 c-49 -20 -54 -115 -9 -182 39 -58 97 -62 156 -12 90 75
-34 239 -147 194z m89 -91 c7 -15 7 -24 -1 -34 -11 -13 -63 -28 -55 -15 2 4 1
20 -4 36 -8 27 -6 29 20 31 20 2 32 -4 40 -18z"/>
<path d="M1800 2070 c-25 -46 39 -91 72 -50 22 27 22 34 2 54 -22 22 -61 20
-74 -4z"/>
<path d="M1731 1975 c-17 -19 -38 -49 -47 -66 -14 -28 -14 -32 2 -50 28 -31
50 -23 93 38 46 64 48 73 23 96 -26 24 -36 21 -71 -18z"/>
<path d="M599 1915 c-29 -16 -53 -48 -62 -85 -6 -21 3 -34 62 -91 37 -36 82
-71 100 -78 28 -12 34 -12 51 4 27 24 25 40 -7 63 -21 16 -25 23 -16 32 8 9
19 9 46 -1 29 -10 39 -10 51 0 41 34 -3 77 -70 69 -30 -3 -31 -2 -23 20 24 62
-62 105 -132 67z m1 -19 c0 -2 -8 -10 -17 -17 -16 -13 -17 -12 -4 4 13 16 21
21 21 13z m72 -52 c-6 -31 -29 -49 -45 -36 -10 9 -16 54 -8 57 1 1 13 0 29 -1
21 -1 26 -6 24 -20z"/>
<path d="M1895 1872 c-37 -23 -50 -39 -58 -72 -21 -84 87 -192 127 -127 9 14
6 21 -16 40 -30 24 -46 71 -29 81 6 4 20 -8 31 -28 23 -38 41 -49 68 -39 59
21 68 74 21 128 -26 29 -38 35 -73 35 -22 0 -54 -8 -71 -18z m126 -70 c7 -18
5 -20 -13 -13 -12 4 -25 17 -29 29 -7 18 -5 20 13 13 12 -4 25 -17 29 -29z"/>
<path d="M1190 1834 c-192 -51 -346 -204 -395 -389 -19 -76 -19 -204 0 -280
48 -182 197 -333 384 -389 83 -24 230 -21 312 7 182 62 317 205 363 383 17 66
22 184 7 184 -5 0 -26 -7 -46 -16 -50 -20 -94 -12 -130 26 -33 35 -46 37 -69
11 -24 -26 -71 -33 -109 -17 -41 17 -63 43 -74 86 -8 32 -13 36 -53 41 -105
14 -136 136 -52 205 24 20 24 21 8 53 -10 19 -16 48 -14 69 3 37 3 37 -37 39
-22 1 -65 -4 -95 -13z m96 -32 c-3 -4 -1 -26 4 -47 7 -29 5 -44 -4 -55 -24
-27 -46 -78 -46 -106 0 -70 76 -154 139 -154 14 0 21 -6 21 -19 0 -25 44 -77
81 -96 37 -20 93 -19 135 1 34 16 36 16 60 -7 22 -21 36 -24 95 -24 l69 0 -6
-50 c-41 -324 -372 -531 -680 -425 -79 28 -144 71 -208 141 -250 270 -137 707
214 826 64 22 136 31 126 15z"/>
<path d="M1090 1665 c-29 -30 -31 -35 -16 -41 19 -7 66 30 66 52 0 26 -18 22
-50 -11z"/>
<path d="M1014 1489 c-7 -12 44 -69 63 -69 22 0 15 25 -15 53 -31 30 -38 32
-48 16z"/>
<path d="M1285 1430 c-3 -5 7 -24 23 -41 21 -23 34 -30 47 -25 16 6 15 10 -15
41 -36 37 -45 41 -55 25z"/>
<path d="M1090 1305 c0 -13 10 -15 50 -13 67 4 69 22 3 26 -43 2 -53 0 -53
-13z"/>
<path d="M924 1266 c-11 -29 1 -81 19 -84 14 -3 17 4 17 47 0 39 -4 51 -15 51
-9 0 -18 -6 -21 -14z"/>
<path d="M1434 1216 c-9 -24 0 -51 19 -54 15 -3 18 2 15 29 -3 35 -24 51 -34
25z"/>
<path d="M1265 1179 c-18 -22 -23 -35 -16 -42 12 -12 71 38 71 60 0 23 -27 14
-55 -18z"/>
<path d="M1635 1150 c-22 -23 -26 -33 -17 -42 9 -9 19 -5 42 17 31 30 39 55
17 55 -7 0 -26 -14 -42 -30z"/>
<path d="M1116 1071 c-10 -15 15 -91 29 -91 20 0 24 11 13 43 -13 41 -33 63
-42 48z"/>
<path d="M1346 1001 c-11 -16 22 -32 61 -29 27 2 39 8 41 21 3 14 -4 17 -47
17 -27 0 -52 -4 -55 -9z"/>
<path d="M1674 1749 c-10 -17 41 -63 62 -55 15 6 14 10 -11 36 -31 33 -40 36
-51 19z"/>
<path d="M1515 1666 c-26 -27 -31 -41 -16 -51 10 -6 61 40 61 55 0 21 -22 19
-45 -4z"/>
<path d="M1675 1570 c-12 -19 10 -32 46 -28 48 4 46 32 -3 36 -20 2 -39 -2
-43 -8z"/>
<path d="M1808 810 c-10 -6 -15 -19 -13 -32 3 -11 2 -18 -2 -14 -3 3 -13 0
-22 -6 -9 -7 -7 -2 4 11 14 17 16 23 5 19 -8 -2 -23 -19 -34 -37 -18 -30 -18
-34 -1 -76 31 -83 99 -112 178 -77 70 31 100 98 56 125 -13 8 -25 2 -56 -31
-43 -45 -54 -50 -72 -28 -9 11 -5 18 24 36 26 16 35 28 35 49 0 46 -63 84
-102 61z m30 -66 c-2 -9 -13 -21 -26 -25 -13 -5 -21 -5 -19 -1 2 4 7 15 10 25
8 22 40 23 35 1z"/>
<path d="M796 770 c-40 -12 -66 -38 -88 -88 -25 -55 -17 -92 27 -131 44 -38
88 -48 120 -27 38 25 28 46 -27 60 -33 8 -53 39 -39 64 5 9 21 28 35 41 23 22
28 23 72 12 74 -19 103 22 42 59 -35 21 -91 25 -142 10z m24 -64 c0 -2 -8 -10
-17 -17 -16 -13 -17 -12 -4 4 13 16 21 21 21 13z"/>
<path d="M1599 719 c-21 -21 -21 -46 0 -41 7 1 10 -2 6 -8 -9 -14 20 -23 49
-16 33 8 43 42 20 67 -22 25 -49 24 -75 -2z"/>
<path d="M992 654 c-12 -8 -20 -20 -16 -25 3 -5 0 -8 -6 -7 -7 2 -20 -8 -31
-22 -48 -63 -40 -142 16 -166 54 -22 117 -18 143 9 64 68 54 170 -20 208 -45
23 -57 24 -86 3z m62 -96 c12 -20 -8 -48 -36 -48 -27 0 -34 27 -12 51 19 22
32 21 48 -3z"/>
<path d="M1393 660 c-30 -12 -29 -29 12 -151 36 -108 55 -133 89 -123 37 11
41 22 22 54 -16 28 -16 31 -1 36 11 4 28 -5 50 -26 35 -34 60 -35 86 -4 17 21
-4 57 -47 80 -18 10 -36 25 -39 33 -3 9 -3 12 1 8 12 -12 34 14 34 42 0 33
-17 51 -47 51 -26 0 -36 -18 -37 -66 -1 -22 -5 -31 -16 -29 -15 2 -27 22 -49
78 -11 28 -22 32 -58 17z"/>
<path d="M1673 635 c-18 -8 -33 -20 -33 -28 0 -8 18 -42 40 -75 43 -67 62 -75
101 -43 l23 18 -34 57 c-50 82 -58 87 -97 71z"/>
<path d="M1203 598 c-45 -50 -57 -148 -23 -191 11 -14 35 -28 54 -31 44 -8
117 8 133 30 17 24 16 106 -2 150 -25 60 -122 85 -162 42z m94 -84 c6 -17 -6
-45 -23 -51 -5 -2 -18 3 -28 10 -15 11 -17 17 -7 35 14 26 49 29 58 6z"/>
</g>
</svg>
