<?xml version="1.0" standalone="no"?>
<!DOCTYPE svg PUBLIC "-//W3C//DTD SVG 20010904//EN"
 "http://www.w3.org/TR/2001/REC-SVG-20010904/DTD/svg10.dtd">
<svg version="1.0" xmlns="http://www.w3.org/2000/svg"
 width="260.000000pt" height="260.000000pt" viewBox="0 0 260.000000 260.000000"
 preserveAspectRatio="xMidYMid meet">
<metadata>
Created by potrace 1.11, written by Peter Selinger 2001-2013
</metadata>
<g transform="translate(0.000000,260.000000) scale(0.100000,-0.100000)"
fill="#000000" stroke="none">
<path d="M1567 2585 c-20 -20 -50 -101 -88 -238 l-31 -111 26 -23 c29 -25 70
-30 82 -11 4 7 10 28 14 48 3 22 11 35 20 35 14 0 21 -21 36 -101 3 -19 37
-41 59 -39 67 7 77 58 31 167 -5 11 -1 18 13 23 12 3 35 18 51 32 39 32 40 73
4 102 -31 24 -47 19 -97 -28 -47 -44 -63 -31 -40 33 25 70 25 84 1 100 -39 24
-65 28 -81 11z"/>
<path d="M1133 2550 c-64 -25 -102 -196 -60 -276 23 -45 52 -66 99 -70 67 -6
129 16 155 55 49 73 13 229 -62 272 -37 21 -102 30 -132 19z m87 -140 c10 -5
17 -18 15 -27 -2 -10 -4 -21 -4 -24 -1 -10 -41 -18 -57 -12 -17 6 -18 27 -4
54 12 21 23 23 50 9z"/>
<path d="M705 2405 c-22 -8 -41 -15 -42 -15 -12 -1 -30 -63 -28 -95 7 -106 44
-177 108 -208 47 -22 93 -12 154 33 33 24 44 40 51 73 8 37 6 49 -23 102 -53
100 -136 142 -220 110z m111 -140 c4 -15 1 -32 -7 -41 -18 -22 -52 -13 -59 16
-10 37 -1 50 31 50 22 0 30 -6 35 -25z"/>
<path d="M1996 2379 c-52 -41 -20 -124 46 -117 39 4 73 46 65 80 -6 21 -52 58
-75 58 -5 0 -21 -9 -36 -21z"/>
<path d="M1896 2244 c-51 -56 -99 -140 -92 -162 4 -10 22 -27 41 -38 33 -18
34 -18 56 1 29 27 119 155 119 171 0 16 -57 64 -76 64 -8 0 -30 -16 -48 -36z"/>
<path d="M357 2166 c-86 -31 -150 -120 -128 -179 17 -44 199 -200 248 -213 28
-7 72 22 79 53 7 25 -18 63 -42 63 -22 0 -28 22 -10 36 14 10 25 9 59 -6 45
-20 68 -15 88 21 19 36 3 67 -39 78 -20 6 -52 11 -71 11 -31 0 -33 2 -28 27 7
39 -20 80 -68 103 -48 23 -40 23 -88 6z m42 -115 c16 -10 7 -47 -14 -55 -8 -3
-22 2 -30 11 -15 14 -14 17 1 34 19 21 23 22 43 10z"/>
<path d="M2135 2102 c-55 -26 -93 -67 -105 -113 -32 -119 102 -264 180 -194
27 24 26 31 -14 68 -36 34 -56 66 -56 91 0 30 30 16 49 -22 11 -21 31 -43 45
-50 61 -27 146 41 131 107 -3 15 -25 49 -48 75 -38 44 -47 49 -92 53 -35 2
-62 -2 -90 -15z m143 -106 c3 -13 -1 -17 -14 -14 -11 2 -20 11 -22 22 -3 13 1
17 14 14 11 -2 20 -11 22 -22z"/>
<path d="M1189 2044 c-307 -55 -557 -306 -615 -614 -23 -127 -1 -311 52 -431
217 -492 852 -615 1233 -238 139 137 223 336 223 527 0 80 -10 91 -56 63 -42
-26 -109 -33 -153 -15 -17 8 -44 29 -60 49 -15 19 -31 35 -35 35 -4 0 -28 -15
-53 -32 -56 -40 -122 -44 -176 -10 -41 25 -59 52 -74 112 -11 44 -12 45 -54
47 -63 4 -108 30 -136 78 -43 73 -28 148 42 210 l34 30 -21 40 c-17 31 -20 52
-16 92 7 74 -8 80 -135 57z m79 -81 c1 -21 7 -51 14 -66 9 -25 8 -31 -15 -55
-76 -79 -78 -209 -3 -290 27 -31 88 -62 119 -62 28 0 42 -14 50 -50 9 -38 64
-99 105 -116 61 -26 123 -26 181 2 l52 24 22 -21 c51 -48 137 -66 211 -45 l29
9 -7 -72 c-14 -158 -85 -302 -211 -428 -68 -67 -99 -89 -176 -126 -120 -58
-179 -71 -309 -72 -130 0 -168 6 -268 45 -211 81 -369 259 -429 482 -17 65
-23 227 -11 303 29 180 159 369 323 473 78 50 221 99 290 101 29 1 31 -2 33
-36z"/>
<path d="M997 1802 c-37 -37 -43 -72 -13 -72 18 0 86 73 86 93 0 29 -34 19
-73 -21z"/>
<path d="M900 1555 c-11 -14 -7 -22 25 -55 42 -43 75 -52 75 -22 0 16 -67 92
-82 92 -3 0 -11 -7 -18 -15z"/>
<path d="M1283 1483 c-24 -9 -13 -41 27 -77 38 -34 70 -40 70 -12 -1 24 -79
96 -97 89z"/>
<path d="M1030 1322 c-14 -2 -28 -9 -32 -15 -14 -23 14 -37 72 -37 58 0 86 14
71 38 -7 12 -68 20 -111 14z"/>
<path d="M769 1258 c-9 -106 1 -145 33 -133 15 6 21 72 12 123 -5 24 -43 32
-45 10z"/>
<path d="M1482 1183 c-21 -42 5 -106 34 -83 19 17 16 78 -6 90 -15 8 -21 6
-28 -7z"/>
<path d="M1246 1130 c-37 -42 -42 -63 -14 -68 21 -4 90 64 86 85 -6 32 -34 25
-72 -17z"/>
<path d="M1756 1091 c-38 -39 -44 -71 -13 -71 22 0 90 77 84 94 -10 25 -30 19
-71 -23z"/>
<path d="M1026 971 c-7 -11 23 -102 39 -120 17 -17 35 -6 35 22 0 40 -32 107
-51 107 -10 0 -20 -4 -23 -9z"/>
<path d="M1395 890 c-32 -4 -40 -9 -40 -25 0 -17 8 -20 50 -23 68 -3 97 5 93
25 -4 21 -48 30 -103 23z"/>
<path d="M1811 1916 c-9 -11 -5 -21 21 -50 33 -38 62 -46 71 -21 6 14 -54 85
-72 85 -5 0 -14 -6 -20 -14z"/>
<path d="M1584 1795 c-37 -38 -40 -58 -9 -63 21 -5 77 55 73 77 -5 27 -28 22
-64 -14z"/>
<path d="M1810 1659 c-9 -16 -7 -21 11 -27 26 -10 89 -6 102 7 21 21 -1 37
-52 38 -41 2 -53 -1 -61 -18z"/>
<path d="M1974 608 c-80 -63 -102 -107 -83 -168 24 -75 92 -135 163 -145 79
-10 184 53 207 123 10 29 9 38 -8 61 -27 35 -64 35 -81 -2 -16 -33 -67 -67
-99 -67 -35 0 -27 23 17 50 70 43 70 100 1 147 -43 29 -80 29 -117 1z m59 -94
c-6 -16 -39 -19 -48 -5 -3 5 2 17 11 26 19 18 47 3 37 -21z"/>
<path d="M590 565 c-78 -28 -158 -141 -147 -210 12 -72 82 -141 158 -155 32
-6 46 -3 72 14 56 38 46 79 -22 90 -79 12 -90 69 -26 133 37 37 54 40 114 18
68 -24 112 5 91 60 -20 54 -151 81 -240 50z"/>
<path d="M1734 515 c-63 -26 -75 -77 -26 -115 33 -27 64 -25 96 5 58 54 3 141
-70 110z"/>
<path d="M874 411 c-48 -22 -99 -83 -124 -149 -29 -79 -9 -135 62 -170 63 -32
147 -34 185 -6 59 43 91 165 64 237 -16 41 -69 83 -126 100 -11 4 -38 -2 -61
-12z m60 -136 c42 -28 5 -81 -45 -68 -27 7 -30 29 -8 57 24 31 23 30 53 11z"/>
<path d="M1403 410 c-17 -7 -23 -18 -23 -42 0 -45 96 -320 117 -335 25 -19 67
-16 96 7 l25 20 -21 40 c-17 31 -19 42 -10 51 10 10 23 2 62 -34 28 -26 55
-47 62 -47 19 0 77 31 82 44 13 33 -68 126 -110 126 -17 0 -16 6 6 38 32 45
36 87 10 111 -48 45 -119 16 -119 -49 0 -15 -6 -34 -13 -45 -17 -22 -23 -14
-52 65 -19 52 -22 55 -55 57 -19 1 -45 -2 -57 -7z"/>
<path d="M1788 373 c-15 -10 -30 -23 -32 -29 -9 -23 81 -171 122 -200 16 -11
25 -10 60 7 22 11 43 26 45 34 6 15 -31 88 -80 156 -39 54 -66 62 -115 32z"/>
<path d="M1163 336 c-67 -56 -99 -206 -56 -264 38 -52 77 -70 142 -67 70 4 98
11 122 34 57 53 52 197 -9 264 -26 29 -65 46 -119 53 -43 5 -53 2 -80 -20z
m115 -129 c12 -14 5 -56 -9 -58 -5 -1 -15 -2 -21 -3 -7 -1 -21 1 -30 6 -14 7
-15 13 -6 38 11 32 46 41 66 17z"/>
</g>
</svg>
